# xmcd
#
# Track frame offsets:
#	150
#	7339
#	16392
#	22796
#	27164
#	35994
#	39783
#	46817
#	51159
#	52791
#	59852
#	66412
#	71231
#	80648
#	90849
#	100875
#	114951
#	120205
#	125975
#
# Disc length: 1726 seconds
#
# Revision: 0
# Processed by: cddbd v1.5.2PL0 Copyright (c) Steve Scherf et al.
# Submitted via: EasyCDDAExtractor 10.0.5.1
#
DISCID=fd06bc13
DTITLE=The Kids Club Singers - Kids Country Songs
DYEAR=2004
DGENRE=Country
TTITLE0=Sippin' Cider Through a Straw
TTITLE1=My Darling Clementine
TTITLE2=The Old Gray Mare
TTITLE3=O Susanna
TTITLE4=On Top Of Old Smokey
TTITLE5=Baa Baa Black Sheep
TTITLE6=Bananas In Pajamas
TTITLE7=Turkey In The Straw
TTITLE8=Be Kind To Your Web Footed Friends
TTITLE9=Do Your Ears Hang Low?
TTITLE10=The Alphabet Song
TTITLE11=Yankee Doodle
TTITLE12=She'll Be Coming Round The Mountain
TTITLE13=I've Been Working On The Railroad
TTITLE14=If You're Happy And You Know It
TTITLE15=The Hokey Pokey
TTITLE16=Sing A Song Of Sixpence
TTITLE17=What Did Delaware?
TTITLE18=Buffalo Gals
EXTD=
EXTT0=
EXTT1=
EXTT2=
EXTT3=
EXTT4=
EXTT5=
EXTT6=
EXTT7=
EXTT8=
EXTT9=
EXTT10=
EXTT11=
EXTT12=
EXTT13=
EXTT14=
EXTT15=
EXTT16=
EXTT17=
EXTT18=
PLAYORDER=
